<svg width="1024.000000" height="1024.000000" viewBox="0 0 1024 1024" fill="none" xmlns="http://www.w3.org/2000/svg" xmlns:xlink="http://www.w3.org/1999/xlink">
	<desc>
			Created with Pixso.
	</desc>
	<defs>
		<clipPath id="clip2_1">
			<rect id="背景" rx="128.000000" width="1024.000000" height="1024.000000" fill="white"/>
		</clipPath>
		<linearGradient id="paint_linear_2_45_0" x1="168.000031" y1="867.999878" x2="879.000000" y2="155.000214" gradientUnits="userSpaceOnUse">
			<stop stop-color="#6611CC"/>
			<stop offset="1.000000" stop-color="#2277FF"/>
		</linearGradient>
		<linearGradient id="paint_linear_2_49_0" x1="511.500000" y1="346.000000" x2="511.500000" y2="756.000000" gradientUnits="userSpaceOnUse">
			<stop stop-color="#6611CC"/>
			<stop offset="1.000000" stop-color="#6611CC" stop-opacity="0.000000"/>
		</linearGradient>
	</defs>
	<g clip-path="url(#clip2_1)">
		<path id="球" d="M577.127 573.892C531.066 582.017 485.616 587.424 440.778 590.113C421.105 567.522 392.144 553.231 359.882 553.231C328.72 553.231 300.637 566.564 281.03 587.833C243.124 584.247 207.056 578.407 172.826 570.313C172.204 566.563 171.641 562.8 171.139 559.034C169.046 543.329 168 527.484 168 511.5C168 484.721 170.863 458.585 176.589 433.093C181.202 412.556 187.674 392.436 196.004 372.735C204.462 352.727 214.558 333.788 226.285 315.928C239.555 295.716 254.918 276.879 272.373 259.416C289.832 241.951 308.676 226.572 328.884 213.294C346.732 201.568 365.652 191.475 385.645 183.015C405.347 174.678 425.469 168.202 446.006 163.587L446.059 163.575Q484.243 155 524.353 155Q562.74 155 599.433 162.883L599.441 162.884L599.442 162.885L599.51 162.899C618.515 166.986 637.18 172.66 655.503 179.919Q683.633 191.064 709.128 206.549L709.129 206.55L709.233 206.613C728.904 218.571 747.398 232.467 764.714 248.303C781.664 263.804 796.878 280.606 810.348 298.701C822.444 314.951 833.137 332.246 842.426 350.587C852.219 369.923 860.139 389.824 866.181 410.269C872.515 431.702 876.788 453.744 879 476.395C789.172 521.738 688.547 554.238 577.127 573.892ZM386.102 295.692C338.71 295.692 300.291 334.127 300.291 381.539C300.291 428.95 338.71 467.385 386.102 467.385C433.494 467.385 471.913 428.95 471.913 381.539C471.913 334.127 433.494 295.692 386.102 295.692ZM589.903 381.539C589.903 352.565 613.381 329.077 642.343 329.077C671.304 329.077 694.782 352.565 694.782 381.539C694.782 410.512 671.304 434 642.343 434C613.381 434 589.903 410.512 589.903 381.539ZM239.802 726.142C252.046 727.244 264.449 728.073 277.011 728.63C296.693 752.567 326.523 767.847 359.882 767.847C396.844 767.847 429.473 749.089 448.766 720.581C499.996 713.926 551.617 703.628 603.629 689.686C703.308 662.965 793.522 626.166 874.272 579.289C870.612 598.326 865.477 616.819 858.868 634.769C851.581 654.56 842.5 673.69 831.627 692.16C821.669 709.074 810.487 724.966 798.082 739.837C784.659 755.926 769.805 770.82 753.518 784.517C736.544 798.793 718.569 811.298 699.594 822.033C683.279 831.263 666.224 839.184 648.429 845.796C631.422 852.116 614.137 857.087 596.574 860.709C573.001 865.57 548.927 868 524.353 868C493.717 868 464.033 864.3 435.301 856.899C410.022 850.387 385.481 841.011 361.676 828.771C337.674 816.429 315.588 801.798 295.419 784.883C274.896 767.67 256.357 748.09 239.802 726.142ZM562.491 755.923C540.77 755.923 523.161 773.539 523.161 795.269C523.161 817 540.77 834.615 562.491 834.615C584.212 834.615 601.821 817 601.821 795.269C601.821 773.539 584.212 755.923 562.491 755.923Z" clip-rule="evenodd" fill-rule="evenodd" fill="url(#paint_linear_2_45_0)" fill-opacity="1.000000"/>
		<path id="环" d="M885.464 374.393C898.658 379.517 912.983 386.848 927.035 394.866C941.634 403.197 948.929 410.174 952.885 418.182C932.617 425.44 918.094 444.827 918.094 467.57C918.094 472.233 918.705 476.754 919.85 481.059C860.221 524.105 733.738 571.322 580.727 601.058C535.607 609.827 490.045 615.362 445.689 618.407C430.094 586.954 397.643 565.302 360.187 565.302C322.572 565.302 290.003 587.138 274.486 618.809C161.169 611.691 78.7435 591.439 71.1003 577.817C60.5047 567.223 95.4649 531.509 119.381 517.032C124.044 514.209 127.419 511.732 129.849 509.432C129.921 499.882 130.886 489.272 132.836 478.212C133.928 472.024 135.261 466.074 136.784 460.456C133.401 461.111 127.915 462.992 119.381 466.378C81.8293 481.276 31.7768 514.671 11.4949 543.253C-39.7922 634.93 86.5314 690.349 271.301 695.242C285.17 730.782 319.764 756 360.187 756C404.272 756 441.424 726.006 452.32 685.34C500.584 679.093 550.032 669.929 599.205 657.671C749.835 620.123 874.667 565.092 940.303 510.406C948.853 516.455 959.289 520.012 970.547 520.012C999.49 520.012 1023 496.506 1023 467.57C1023 444.729 1008.35 425.272 987.946 418.088C982.327 400.463 966.146 384.286 937.764 370.433C912.312 358.01 885.098 352.232 870.83 346.654C870.273 346.435 869.735 346.218 869.218 346C869.308 346.207 869.399 346.409 869.489 346.607C871.425 349.117 873.338 351.813 875.189 354.662C879.624 361.49 883.105 368.283 885.464 374.393Z" clip-rule="evenodd" fill-rule="evenodd" fill="url(#paint_linear_2_49_0)" fill-opacity="1.000000"/>
	</g>
</svg>
